solid OpenSCAD_Model
  facet normal -1 0 0
    outer loop
      vertex 0 10 0
      vertex 0 5 2
      vertex 0 10 2
    endloop
  endfacet
  facet normal -1 -0 0
    outer loop
      vertex 0 5 2
      vertex 0 0 0
      vertex 0 5 3
    endloop
  endfacet
  facet normal -1 0 0
    outer loop
      vertex 0 0 0
      vertex 0 5 2
      vertex 0 10 0
    endloop
  endfacet
  facet normal -1 0 0
    outer loop
      vertex 0 5 3
      vertex 0 10 28
      vertex 0 10 3
    endloop
  endfacet
  facet normal -1 0 0
    outer loop
      vertex 0 0 28
      vertex 0 5 3
      vertex 0 0 0
    endloop
  endfacet
  facet normal -1 0 0
    outer loop
      vertex 0 5 3
      vertex 0 0 28
      vertex 0 10 28
    endloop
  endfacet
  facet normal -0 0 1
    outer loop
      vertex 0 10 28
      vertex 15 0 28
      vertex 15 10 28
    endloop
  endfacet
  facet normal 0 0 1
    outer loop
      vertex 15 0 28
      vertex 0 10 28
      vertex 0 0 28
    endloop
  endfacet
  facet normal 1 0 0
    outer loop
      vertex 15 10 28
      vertex 15 5 3
      vertex 15 10 3
    endloop
  endfacet
  facet normal 1 0 0
    outer loop
      vertex 15 0 0
      vertex 15 5 3
      vertex 15 0 28
    endloop
  endfacet
  facet normal 1 -0 0
    outer loop
      vertex 15 0 28
      vertex 15 5 3
      vertex 15 10 28
    endloop
  endfacet
  facet normal 1 -0 0
    outer loop
      vertex 15 5 2
      vertex 15 10 0
      vertex 15 10 2
    endloop
  endfacet
  facet normal 1 0 0
    outer loop
      vertex 15 5 2
      vertex 15 0 0
      vertex 15 10 0
    endloop
  endfacet
  facet normal 1 0 0
    outer loop
      vertex 15 5 3
      vertex 15 0 0
      vertex 15 5 2
    endloop
  endfacet
  facet normal 0 1 -0
    outer loop
      vertex 15 10 0
      vertex 0 10 2
      vertex 15 10 2
    endloop
  endfacet
  facet normal 0 1 0
    outer loop
      vertex 0 10 2
      vertex 15 10 0
      vertex 0 10 0
    endloop
  endfacet
  facet normal 0 1 -0
    outer loop
      vertex 15 10 3
      vertex 0 10 28
      vertex 15 10 28
    endloop
  endfacet
  facet normal 0 1 0
    outer loop
      vertex 0 10 28
      vertex 15 10 3
      vertex 0 10 3
    endloop
  endfacet
  facet normal 0 0 -1
    outer loop
      vertex 0 0 0
      vertex 15 10 0
      vertex 15 0 0
    endloop
  endfacet
  facet normal -0 0 -1
    outer loop
      vertex 15 10 0
      vertex 0 0 0
      vertex 0 10 0
    endloop
  endfacet
  facet normal 0 -1 0
    outer loop
      vertex 0 0 0
      vertex 15 0 28
      vertex 0 0 28
    endloop
  endfacet
  facet normal 0 -1 -0
    outer loop
      vertex 15 0 28
      vertex 0 0 0
      vertex 15 0 0
    endloop
  endfacet
  facet normal 0 0 -1
    outer loop
      vertex 0 5 3
      vertex 15 10 3
      vertex 15 5 3
    endloop
  endfacet
  facet normal -0 0 -1
    outer loop
      vertex 15 10 3
      vertex 0 5 3
      vertex 0 10 3
    endloop
  endfacet
  facet normal -0 0 1
    outer loop
      vertex 0 10 2
      vertex 15 5 2
      vertex 15 10 2
    endloop
  endfacet
  facet normal 0 0 1
    outer loop
      vertex 15 5 2
      vertex 0 10 2
      vertex 0 5 2
    endloop
  endfacet
  facet normal 0 1 -0
    outer loop
      vertex 15 5 2
      vertex 0 5 3
      vertex 15 5 3
    endloop
  endfacet
  facet normal 0 1 0
    outer loop
      vertex 0 5 3
      vertex 15 5 2
      vertex 0 5 2
    endloop
  endfacet
endsolid OpenSCAD_Model
